<svg xmlns="http://www.w3.org/2000/svg" width="54" height="18"><rect width="53" height="17" fill="none" stroke-linejoin="miter" stroke="#fff" x=".5" y=".5" stroke-width="1" rx="2" ry="2"/><path d="m.5 2.5h53" stroke="#fff" stroke-width=".5"/><path d="m.5 4h53" stroke="#fff" stroke-width=".5"/><path d="m.5 5.5h53" stroke="#fff" stroke-width=".5"/><path d="m12 17.5v-17" stroke="#fff"/><path d="m42 17.5v-17" stroke="#fff"/><g><path d="m.5 7.5h11.5" stroke="#fff" stroke-width=".5"/><path d="m.5 10h11.5" stroke="#fff" stroke-width=".5"/><path d="m.5 12.5h11.5" stroke="#fff" stroke-width=".5"/></g><g transform="translate(41.5)"><path d="m.5 7.5h11.5" stroke="#fff" stroke-width=".5"/><path d="m.5 10h11.5" stroke="#fff" stroke-width=".5"/><path d="m.5 12.5h11.5" stroke="#fff" stroke-width=".5"/></g><path d="m12 10h30" stroke="#fff" stroke-width=".5"/><path d="m27 10v7.5" stroke="#fff" stroke-width=".5"/><g><path d="m12 15h15" stroke="#fff" stroke-width=".5"/><path d="m12 12.5h15" stroke="#fff" stroke-width=".5"/></g><g transform="translate(15)"><path d="m12 15h15" stroke="#fff" stroke-width=".5"/><path d="m12 12.5h15" stroke="#fff" stroke-width=".5"/></g></svg>