<svg xmlns="http://www.w3.org/2000/svg" width="16" height="16" viewBox="1 -.5 14 14"><path d="m10.25 6.25-.125 5.375h.25l.375.375v.75a1 .5 0 01-1 .325l-5-.075a1 1 0 01-.8-.25v-.25a2 2 0 011.05-1.125h2.125v-3C7.125 8.25 6.625 8.125 6.5 7.875h-.125q-.1875-.125 0-.875C6.5 6.75 6.375 6.25 6.375 6.125a.125.125 0 01.125-.0625h.3125a.25.25 0 00-.1875-.1875l-1.875-1.75-.125-.5-.25-.125v-1l.125-.25 2.375-1h.375l.5-.625h.875l.375-.5a.75.75 0 01.75 0l.5 1.25h1l.5.125.875-.25A5 5 0 0113.5 3.625l-1 .375-.25.625-1.625 1a1 1 0 00-.375.625z" fill="#fff"/></svg>