<svg xmlns="http://www.w3.org/2000/svg" width="16" height="16"><path d="m8 10C8.5 10 12 10 12 11Q12.5 13 13.5 13 16.25 13.5 15 6 14.5 3.75 11.5 3 7.92 2.35 4.5 3 1.75 3.75 1 6 0 13 2 13 3.5 13.25 4 11 4 10 8 10z" fill="#fff" stroke="none" stroke-width=".5"/><circle r="1" cx="3" cy="6.25" stroke="none" fill="#09090b" stroke-width=".25"/><circle r="1" cx="13.25" cy="6.25" stroke="none" fill="#09090b" stroke-width=".25"/><circle r=".5" cx="5" cy="7.25" fill="#09090b"/><circle r=".5" cx="4" cy="8.25" fill="#09090b"/><circle r=".5" cx="5" cy="9.125" fill="#09090b"/><circle r=".5" cx="6" cy="8.25" fill="#09090b"/><circle r=".5" cx="11.25" cy="7.25" fill="#09090b"/><circle r=".5" cx="10.25" cy="8.25" fill="#09090b"/><circle r=".5" cx="11.25" cy="9.125" fill="#09090b"/><circle r=".5" cx="12.25" cy="8.25" fill="#09090b"/><rect width="4.125" height="2.5" x="6" y="4" fill="#09090b" stroke-linejoin="round" rx=".25" ry=".25"/><rect width="1" height="1" x="7.625" y="8.17" fill="#09090b" stroke-linejoin="round" rx=".125" ry=".125"/></svg>