<?xml version="1.0" encoding="UTF-8"?>
<svg id="Layer_1" xmlns="http://www.w3.org/2000/svg" version="1.1" viewBox="0 0 240.9 106.7">
  <!-- Generator: Adobe Illustrator 29.2.1, SVG Export Plug-In . SVG Version: 2.1.0 Build 116)  -->
  <defs>
    <style>
      .st0 {
        fill: #d7282f;
      }

      .st1 {
        fill: #898a8d;
      }
    </style>
  </defs>
  <path class="st1" d="M1.6,88.5h12.9c4.6,0,5.4,1.5,5.4,4.6v1.3c0,2.3-1.3,2.9-3,3h0c2.2.4,2.8,1.6,2.8,3v4.1h-2v-3.5c0-2.5-1.2-2.8-3.2-2.8H3.7v6.3H1.6s0-16,0-16ZM14.2,96.5c2.4,0,3.4-.6,3.4-2.3v-1.5c0-1.8-.8-2.4-4-2.4H3.7v6.2h10.5Z"/>
  <path class="st1" d="M34.3,94.4c0-4.1,1.4-6,5.7-6h9.2c4.3,0,5.7,2,5.7,6v4.4c0,4.1-1.4,6-5.7,6h-9.3c-4.3,0-5.7-2-5.7-6,0,0,0-4.4,0-4.4ZM52.9,93.5c0-2.8-1.7-3.4-3.8-3.4h-8.8c-2.1,0-3.8.6-3.8,3.4v6c0,2.8,1.7,3.4,3.8,3.4h8.8c2.1,0,3.8-.6,3.8-3.4v-6Z"/>
  <path class="st1" d="M70,88.5h13.7c3.3,0,4.3,1.7,4.3,3.6v1.4c0,1.2-.7,2.3-2.6,2.5h0c1.7.2,3.2.8,3.2,3.3v1.9c0,2.2-2,3.4-4.7,3.4h-13.9v-16.1ZM85.8,92c0-1.5-1.6-1.7-2.3-1.7h-11.3v5.1h11.2c1.2,0,2.4-.4,2.4-2,0,0,0-1.4,0-1.4ZM86.4,99.5c0-2-1.1-2.3-3.1-2.3h-11.2v5.6h11.5c2,0,2.8-.7,2.8-2.2,0,0,0-1.2,0-1.2Z"/>
  <path class="st1" d="M103.2,94.4c0-4.1,1.4-6,5.7-6h9.3c4.4,0,5.7,2,5.7,6v4.4c0,4.1-1.4,6-5.7,6h-9.2c-4.3,0-5.7-2-5.7-6,0,0,0-4.4,0-4.4ZM121.7,93.5c0-2.8-1.7-3.4-3.8-3.4h-8.8c-2.1,0-3.8.6-3.8,3.4v6c0,2.8,1.7,3.4,3.8,3.4h8.8c2.1,0,3.8-.6,3.8-3.4v-6Z"/>
  <path class="st1" d="M145.2,90.3h-8.1v-1.8h18.4v1.8h-8.2v14.3h-2.2v-14.3Z"/>
  <path class="st1" d="M169.2,88.5h2.1v16.1h-2.2v-16.1Z"/>
  <path class="st1" d="M186.4,94.4c0-4.1,1.4-6,5.7-6h8.3c4,0,5,1.8,5,4v1.4h-1.9v-.7c0-2.7-1.7-2.9-3.7-2.9h-7.5c-2.1,0-3.8.6-3.8,3.4v6c0,2.8,1.7,3.4,3.8,3.4h7.6c2.9,0,3.8-.6,3.8-2.8v-1h2v1.1c0,2.9-.9,4.5-5.4,4.5h-8.2c-4.4,0-5.7-2-5.7-6v-4.4q0,0,0,0Z"/>
  <path class="st1" d="M220,99.5h2v1.1c0,1.6.9,2.3,3.6,2.3h6.8c3.1,0,4.1-.7,4.1-3s-.8-2.5-3.5-2.5h-4.1c-6.6,0-8.8-.4-8.8-4.7s2.2-4.5,6.7-4.5h4.7c5.4,0,6.7,1.4,6.7,4.2v.6h-2c0-2.6-.3-3-6-3h-2.3c-4.2,0-5.7.2-5.7,2.9s.6,2.6,4,2.6h6.4c4.2,0,6,1.2,6,4v1c0,4-3.2,4.2-6.4,4.2h-6c-3.2,0-6-.6-6-4.1v-1.2h0Z"/>
  <path class="st1" d="M216.4,31.8c-.2,0-.4,0-.5.2l-20.6,14.4-20.7-14.3c-.1,0-.3-.2-.5-.2h-18.2c-.4,0-.7.2-.8.6,0,0,0,.2,0,.3,0,.3.1.6.4.7l29.5,20-32,21.5c-.2.2-.4.4-.4.7,0,0,0,.2,0,.3.1.4.4.6.8.6h18.6c.2,0,.4,0,.5-.2l22.9-15.8,22.6,15.8c.1,0,.3.2.5.2h18.3c.4,0,.7-.2.8-.6v-.3c0-.3-.1-.6-.4-.7l-31.8-21.5,29.6-20c.2-.2.4-.4.4-.7,0,0,0-.2,0-.3-.1-.4-.4-.6-.8-.6h-18.2,0Z"/>
  <path class="st1" d="M73.2,31.8c-.3,0-.5.1-.7.3,0,0-26,31.8-27.3,33.4l-26.8-33.4c-.2-.2-.4-.3-.7-.3H2.4c-.5,0-.9.4-.9.9,0,.2,0,.4.2.5l35.3,42.9c.2.2.4.3.7.3h14.9c.3,0,.5-.1.7-.3l35.8-42.9c.3-.4.3-.9-.1-1.2-.2-.1-.3-.2-.6-.2,0,0-15.3,0-15.3,0Z"/>
  <path class="st0" d="M97.3,31.8c-1.9-3.8-2.9-7.9-2.8-12.1,0-9.8,4.9-18,10.9-18h37.7c2,0,3.7,2.7,3.7,6s-1.6,6.1-3.7,6.1h-37.7c-2,0-3.6,2.7-3.6,5.9s1.4,6.2,3.6,6.2h37.7c2,0,3.7,2.7,3.7,6h0c0,3.3-1.6,6-3.7,6h-37.7c-2.1,0-3.6,3-3.6,6.2s1.6,5.8,3.6,5.8h37.7c2,0,3.7,2.7,3.7,6.1s-1.6,6.1-3.7,6.1h-37.7c-6,0-10.9-8.2-10.9-18,0-4.2.9-8.4,2.9-12.1h0Z"/>
</svg>